<?xml version="1.0" standalone="no"?>
<!DOCTYPE svg PUBLIC "-//W3C//DTD SVG 20010904//EN"
 "http://www.w3.org/TR/2001/REC-SVG-20010904/DTD/svg10.dtd">
<svg version="1.0" xmlns="http://www.w3.org/2000/svg"
 width="512.000000pt" height="512.000000pt" viewBox="0 0 512.000000 512.000000"
 preserveAspectRatio="xMidYMid meet">
<metadata>
Created by potrace 1.14, written by Peter Selinger 2001-2017
</metadata>
<g transform="translate(0.000000,512.000000) scale(0.100000,-0.100000)"
fill="#000000" stroke="none">
<path d="M1558 3953 c12 -2 30 -2 40 0 9 3 -1 5 -23 4 -22 0 -30 -2 -17 -4z"/>
<path d="M2018 3953 c7 -3 16 -2 19 1 4 3 -2 6 -13 5 -11 0 -14 -3 -6 -6z"/>
<path d="M4265 3655 c-86 -18 -122 -33 -195 -80 -124 -81 -219 -202 -261 -335
-27 -83 -36 -252 -20 -346 7 -38 30 -107 52 -153 33 -71 54 -98 127 -170 85
-83 95 -90 330 -210 180 -92 250 -133 276 -161 69 -76 73 -185 9 -260 -109
-130 -415 -90 -605 79 l-56 51 -35 -47 c-57 -79 -177 -262 -177 -271 0 -10 80
-87 140 -134 117 -94 302 -163 460 -175 337 -24 607 153 702 457 20 64 23 96
23 220 -1 132 -3 152 -28 224 -35 98 -81 169 -158 240 -49 45 -106 79 -310
181 -324 163 -356 192 -347 313 5 75 34 116 102 148 112 52 279 17 417 -88 24
-19 49 -37 56 -41 8 -5 47 44 117 150 l106 157 -33 34 c-174 181 -451 268
-692 217z"/>
<path d="M75 3632 c-3 -3 -5 -489 -5 -1079 l0 -1075 413 4 c383 4 417 6 490
26 296 82 458 298 457 610 -1 222 -98 401 -259 478 -34 15 -61 31 -61 34 0 4
12 13 26 21 75 40 160 176 190 305 22 97 15 266 -15 355 -57 165 -207 274
-423 309 -67 10 -803 21 -813 12z m763 -408 c74 -38 106 -95 106 -193 0 -80
-16 -131 -58 -179 -54 -61 -101 -76 -263 -80 l-143 -4 -1 31 c-1 17 -1 40 -1
51 0 11 0 108 1 216 l1 197 150 -5 c140 -5 154 -8 208 -34z m65 -848 c98 -47
132 -112 130 -247 -2 -125 -57 -206 -170 -249 -50 -19 -79 -22 -223 -23 l-165
-2 0 278 0 279 185 -4 c179 -3 187 -4 243 -32z"/>
<path d="M1730 2559 l0 -1079 185 0 185 0 0 424 c0 234 -5 493 -10 578 -12
177 -38 477 -46 528 -3 22 -2 31 4 25 5 -5 26 -77 46 -160 39 -156 73 -284
112 -420 41 -145 235 -779 239 -783 9 -10 219 -7 230 3 6 6 24 53 40 105 15
52 66 219 112 370 86 278 114 375 200 708 26 100 50 182 53 182 3 0 0 -55 -7
-122 -6 -68 -15 -166 -18 -218 -4 -52 -9 -106 -12 -120 -3 -14 -8 -267 -10
-562 l-5 -538 186 0 186 0 0 103 c1 1431 0 2040 -4 2045 -8 8 -435 6 -443 -2
-4 -4 -33 -95 -64 -204 -31 -108 -94 -323 -138 -476 -78 -266 -136 -484 -161
-608 -6 -32 -15 -58 -19 -58 -4 0 -22 64 -40 143 -33 143 -65 259 -166 597
-30 102 -83 280 -116 395 -34 116 -63 211 -64 213 -1 1 -104 4 -229 6 l-226 3
0 -1078z"/>
</g>
</svg>
